<svg width="16" height="11" viewBox="0 0 16 11" fill="none" xmlns="http://www.w3.org/2000/svg">
<path d="M8.0018 8.50008C8.78938 8.50008 9.45817 8.22443 10.0082 7.67312C10.5582 7.12182 10.8332 6.45237 10.8332 5.66478C10.8332 4.8772 10.5575 4.20841 10.0062 3.65841C9.4549 3.10841 8.78546 2.83341 7.99787 2.83341C7.21029 2.83341 6.5415 3.10907 5.9915 3.66038C5.4415 4.21168 5.1665 4.88113 5.1665 5.66871C5.1665 6.45629 5.44216 7.12508 5.99347 7.67508C6.54477 8.22508 7.21421 8.50008 8.0018 8.50008ZM7.99592 7.53341C7.47631 7.53341 7.03595 7.35155 6.67484 6.98783C6.31373 6.6241 6.13317 6.18243 6.13317 5.66283C6.13317 5.14322 6.31503 4.70286 6.67875 4.34175C7.04249 3.98064 7.48415 3.80008 8.00375 3.80008C8.52336 3.80008 8.96373 3.98194 9.32484 4.34566C9.68595 4.7094 9.8665 5.15106 9.8665 5.67066C9.8665 6.19028 9.68464 6.63064 9.32092 6.99175C8.95719 7.35286 8.51552 7.53341 7.99592 7.53341ZM7.99984 10.6667C6.37761 10.6667 4.91095 10.2056 3.59984 9.28341C2.28873 8.36119 1.31095 7.15564 0.666504 5.66675C1.31095 4.17786 2.28873 2.9723 3.59984 2.05008C4.91095 1.12786 6.37761 0.666748 7.99984 0.666748C9.62206 0.666748 11.0887 1.12786 12.3998 2.05008C13.7109 2.9723 14.6887 4.17786 15.3332 5.66675C14.6887 7.15564 13.7109 8.36119 12.3998 9.28341C11.0887 10.2056 9.62206 10.6667 7.99984 10.6667ZM7.99702 9.66675C9.34334 9.66675 10.5804 9.30286 11.7082 8.57508C12.8359 7.8473 13.6943 6.87786 14.2832 5.66675C13.6943 4.45564 12.8369 3.48619 11.711 2.75841C10.5851 2.03064 9.34896 1.66675 8.00265 1.66675C6.65633 1.66675 5.41928 2.03064 4.2915 2.75841C3.16373 3.48619 2.29984 4.45564 1.69984 5.66675C2.29984 6.87786 3.16279 7.8473 4.28869 8.57508C5.4146 9.30286 6.65071 9.66675 7.99702 9.66675Z" fill="black"/>
</svg>
