<svg width="12" height="14" viewBox="0 0 12 14" fill="none" xmlns="http://www.w3.org/2000/svg">
<path d="M1 13.6666C0.733333 13.6666 0.5 13.5666 0.3 13.3666C0.1 13.1666 0 12.9333 0 12.6666V2.33325C0 2.06659 0.1 1.83325 0.3 1.63325C0.5 1.43325 0.733333 1.33325 1 1.33325H2.08333V0.333252H3.16667V1.33325H8.83333V0.333252H9.91667V1.33325H11C11.2667 1.33325 11.5 1.43325 11.7 1.63325C11.9 1.83325 12 2.06659 12 2.33325V12.6666C12 12.9333 11.9 13.1666 11.7 13.3666C11.5 13.5666 11.2667 13.6666 11 13.6666H1ZM1 12.6666H11V5.49992H1V12.6666ZM1 4.49992H11V2.33325H1V4.49992ZM6 8.33325C5.81111 8.33325 5.65278 8.26936 5.525 8.14158C5.39722 8.01381 5.33333 7.85547 5.33333 7.66658C5.33333 7.4777 5.39722 7.31936 5.525 7.19159C5.65278 7.06381 5.81111 6.99992 6 6.99992C6.18889 6.99992 6.34722 7.06381 6.475 7.19159C6.60278 7.31936 6.66667 7.4777 6.66667 7.66658C6.66667 7.85547 6.60278 8.01381 6.475 8.14158C6.34722 8.26936 6.18889 8.33325 6 8.33325ZM3.33333 8.33325C3.14444 8.33325 2.98611 8.26936 2.85833 8.14158C2.73056 8.01381 2.66667 7.85547 2.66667 7.66658C2.66667 7.4777 2.73056 7.31936 2.85833 7.19159C2.98611 7.06381 3.14444 6.99992 3.33333 6.99992C3.52222 6.99992 3.68056 7.06381 3.80833 7.19159C3.93611 7.31936 4 7.4777 4 7.66658C4 7.85547 3.93611 8.01381 3.80833 8.14158C3.68056 8.26936 3.52222 8.33325 3.33333 8.33325ZM8.66667 8.33325C8.47778 8.33325 8.31944 8.26936 8.19167 8.14158C8.06389 8.01381 8 7.85547 8 7.66658C8 7.4777 8.06389 7.31936 8.19167 7.19159C8.31944 7.06381 8.47778 6.99992 8.66667 6.99992C8.85556 6.99992 9.01389 7.06381 9.14167 7.19159C9.26944 7.31936 9.33333 7.4777 9.33333 7.66658C9.33333 7.85547 9.26944 8.01381 9.14167 8.14158C9.01389 8.26936 8.85556 8.33325 8.66667 8.33325ZM6 10.9999C5.81111 10.9999 5.65278 10.936 5.525 10.8083C5.39722 10.6805 5.33333 10.5221 5.33333 10.3333C5.33333 10.1444 5.39722 9.98603 5.525 9.85825C5.65278 9.73047 5.81111 9.66658 6 9.66658C6.18889 9.66658 6.34722 9.73047 6.475 9.85825C6.60278 9.98603 6.66667 10.1444 6.66667 10.3333C6.66667 10.5221 6.60278 10.6805 6.475 10.8083C6.34722 10.936 6.18889 10.9999 6 10.9999ZM3.33333 10.9999C3.14444 10.9999 2.98611 10.936 2.85833 10.8083C2.73056 10.6805 2.66667 10.5221 2.66667 10.3333C2.66667 10.1444 2.73056 9.98603 2.85833 9.85825C2.98611 9.73047 3.14444 9.66658 3.33333 9.66658C3.52222 9.66658 3.68056 9.73047 3.80833 9.85825C3.93611 9.98603 4 10.1444 4 10.3333C4 10.5221 3.93611 10.6805 3.80833 10.8083C3.68056 10.936 3.52222 10.9999 3.33333 10.9999ZM8.66667 10.9999C8.47778 10.9999 8.31944 10.936 8.19167 10.8083C8.06389 10.6805 8 10.5221 8 10.3333C8 10.1444 8.06389 9.98603 8.19167 9.85825C8.31944 9.73047 8.47778 9.66658 8.66667 9.66658C8.85556 9.66658 9.01389 9.73047 9.14167 9.85825C9.26944 9.98603 9.33333 10.1444 9.33333 10.3333C9.33333 10.5221 9.26944 10.6805 9.14167 10.8083C9.01389 10.936 8.85556 10.9999 8.66667 10.9999Z" fill="black"/>
</svg>
