<svg width="12" height="12" viewBox="0 0 12 12" fill="none" xmlns="http://www.w3.org/2000/svg">
<path d="M6.05 12C5.21667 12 4.43333 11.8417 3.7 11.525C2.96667 11.2083 2.325 10.7778 1.775 10.2333C1.225 9.68889 0.791667 9.05 0.475 8.31667C0.158333 7.58333 0 6.8 0 5.96667C0 5.13333 0.158333 4.35556 0.475 3.63333C0.791667 2.91111 1.225 2.28056 1.775 1.74167C2.325 1.20278 2.96667 0.777778 3.7 0.466667C4.43333 0.155556 5.21667 0 6.05 0C6.93889 0 7.78056 0.194444 8.575 0.583333C9.36944 0.972222 10.0556 1.50556 10.6333 2.18333V0.416667H11.6333V3.88333H8.15V2.88333H9.9C9.41111 2.31667 8.83611 1.86111 8.175 1.51667C7.51389 1.17222 6.80556 1 6.05 1C4.66111 1 3.47222 1.475 2.48333 2.425C1.49444 3.375 1 4.53889 1 5.91667C1 7.32778 1.48889 8.52778 2.46667 9.51667C3.44444 10.5056 4.63889 11 6.05 11C7.43889 11 8.61111 10.5111 9.56667 9.53333C10.5222 8.55556 11 7.37222 11 5.98333H12C12 7.65 11.4222 9.06944 10.2667 10.2417C9.11111 11.4139 7.70556 12 6.05 12ZM8.08333 8.71667L5.51667 6.18333V2.61667H6.51667V5.76667L8.8 8L8.08333 8.71667Z" fill="black"/>
</svg>
