<svg width="16" height="17" viewBox="0 0 16 17" fill="none" xmlns="http://www.w3.org/2000/svg">
<path d="M14.5625 16.0625L8.95834 10.4792C8.55556 10.7975 8.08016 11.0473 7.53211 11.2284C6.98407 11.4095 6.39004 11.5 5.75001 11.5C4.15054 11.5 2.79581 10.9444 1.68582 9.83333C0.575837 8.72222 0.0208435 7.38194 0.0208435 5.8125C0.0208435 4.24306 0.576399 2.90278 1.68751 1.79167C2.79862 0.680556 4.14237 0.125 5.71876 0.125C7.29515 0.125 8.63543 0.680556 9.73959 1.79167C10.8438 2.90278 11.3958 4.2441 11.3958 5.81563C11.3958 6.43854 11.309 7.01736 11.1354 7.55208C10.9618 8.08681 10.7014 8.59028 10.3542 9.0625L15.9792 14.6458L14.5625 16.0625ZM5.73653 9.54167C6.77677 9.54167 7.65366 9.17882 8.3672 8.45312C9.08074 7.72743 9.43751 6.84722 9.43751 5.8125C9.43751 4.77778 9.07972 3.89757 8.36413 3.17188C7.64855 2.44618 6.77268 2.08333 5.73653 2.08333C4.68881 2.08333 3.80065 2.44618 3.07205 3.17188C2.34347 3.89757 1.97918 4.77778 1.97918 5.8125C1.97918 6.84722 2.34245 7.72743 3.06899 8.45312C3.79554 9.17882 4.68473 9.54167 5.73653 9.54167Z" fill="black" fill-opacity="0.2"/>
</svg>
